<?xml version="1.0" encoding="UTF-8"?><svg id="_层_1" xmlns="http://www.w3.org/2000/svg" viewBox="0 0 167 75"><defs><style>.cls-1{fill:#231916;}</style></defs><path class="cls-1" d="M.1,33.02v-8.22c0-.3,.24-.53,.53-.53h1.48c.3,0,.53,.24,.53,.53v1.89c0,.59,.23,1.16,.63,1.59,1.8,1.97,4.36,3,7.13,3,3.34,0,6.41-2.14,6.41-5.9C16.82,16.65,.33,19.71,.33,8.89,.33,4.25,3.86,.58,9.95,.58c2.25,0,4.24,.78,5.79,1.93,.35,.26,.85,.02,.85-.42v-.51c0-.3,.24-.53,.53-.53h1.48c.3,0,.53,.24,.53,.53v7.52c0,.3-.24,.53-.53,.53h-1.48c-.3,0-.53-.24-.53-.53v-2.43c0-.36-.14-.71-.4-.95-1.61-1.49-3.62-2.4-6.1-2.4-3.99,0-6.5,2.32-6.5,5.53,0,8.73,16.49,5.29,16.49,16.49,0,5.53-4.6,8.68-9.57,8.68-2.9,0-5.24-.8-6.96-2.22-.35-.29-.89-.06-.89,.4v.82c0,.3-.24,.53-.53,.53H.64c-.3,0-.53-.24-.53-.53Z"/><path class="cls-1" d="M28.59,31.32h1.81c.3,0,.53-.24,.53-.53V3.76c0-.3-.24-.53-.53-.53h-2.18c-.3,0-.53-.24-.53-.53V1.58c0-.3,.24-.53,.53-.53h5.06c.3,0,.53,.24,.53,.53V14.08c0,.46,.52,.69,.88,.41,1.65-1.3,4.04-2.21,6.36-2.21,5.57,0,8.73,2.79,8.73,9.33v9.17c0,.3,.24,.53,.53,.53h1.53c.3,0,.53,.24,.53,.53v1.16c0,.3-.24,.53-.53,.53h-7.06c-.3,0-.53-.24-.53-.53v-1.16c0-.3,.24-.53,.53-.53h1.58c.3,0,.53-.24,.53-.53v-8.75c0-4.69-2.18-7.2-6.5-7.2h-.08c-3.65,.04-6.52,3.16-6.52,6.8v9.15c0,.3,.24,.53,.53,.53h1.3c.3,0,.53,.24,.53,.53v1.16c0,.3-.24,.53-.53,.53h-7.06c-.3,0-.53-.24-.53-.53v-1.16c0-.3,.24-.53,.53-.53Z"/><path class="cls-1" d="M59.96,31.32h1.72c.3,0,.53-.24,.53-.53V15.37c0-.3-.24-.53-.53-.53h-1.72c-.3,0-.53-.24-.53-.53v-1.11c0-.3,.24-.53,.53-.53h4.6c.3,0,.53,.24,.53,.53V30.79c0,.3,.24,.53,.53,.53h1.86c.3,0,.53,.24,.53,.53v1.16c0,.3-.24,.53-.53,.53h-7.52c-.3,0-.53-.24-.53-.53v-1.16c0-.3,.24-.53,.53-.53Zm1.28-27.59c0-1.3,1.07-2.18,2.32-2.18,1.11,0,2.18,.88,2.18,2.18,0,1.39-1.07,2.28-2.18,2.28-1.25,0-2.32-.88-2.32-2.28Z"/><path class="cls-1" d="M75.96,31.32h1.72c.3,0,.53-.24,.53-.53V15.37c0-.3-.24-.53-.53-.53h-1.72c-.3,0-.53-.24-.53-.53v-1.11c0-.3,.24-.53,.53-.53h4.6c.3,0,.53,.24,.53,.53v2.11c1.11-1.67,2.79-3.02,5.48-3.02,1.78,0,2.87,.63,3.31,1.67,.63,1.49-.34,3.28-1.95,3.26-1.1-.02-2.01-.85-2.01-1.95,0-.09,.09-.33,.23-.37-.09-.14-.37-.23-.74-.23-1.95,.2-3.08,1.38-3.89,2.66-.28,.45-.43,.97-.43,1.5v11.98c0,.3,.24,.53,.53,.53h2.78c.3,0,.53,.24,.53,.53v1.16c0,.3-.24,.53-.53,.53h-8.45c-.3,0-.53-.24-.53-.53v-1.16c0-.3,.24-.53,.53-.53Z"/><path class="cls-1" d="M107.28,63.26c.08,.23,0,.49-.2,.62-1.04,.69-2.47,1.25-4.31,1.25-3.11,0-4.6-1.9-4.6-5.8V3.76c0-.3-.24-.53-.53-.53h-2.13c-.3,0-.53-.24-.53-.53V1.58c0-.3,.24-.53,.53-.53h5.06c.3,0,.53,.24,.53,.53V58.26c0,3.06,.74,4.46,2.79,4.46,.82,0,1.65-.28,2.3-.64,.29-.16,.65-.03,.76,.28l.33,.9Z"/><path class="cls-1" d="M116.64,23.85c-.31,0-.57,.27-.54,.58,.43,4.43,3.73,6.99,8.18,6.99,2.5,0,4.52-.79,5.91-1.95,.25-.21,.62-.13,.79,.15l.65,1.11c.13,.22,.09,.5-.09,.67-1.95,1.75-4.8,2.63-7.44,2.63-6.69,0-11.15-4.32-11.15-10.91,0-6.08,3.76-10.91,10.64-10.91,5.39,0,9.61,3.81,9.61,9.52,0,.62-.05,1.19-.12,1.67-.04,.27-.26,.46-.53,.46h-15.91Zm12.97-2.18c.31,0,.56-.26,.54-.57-.29-3.74-2.55-6.35-6.75-6.35-4.45,0-7.02,2.92-7.31,6.35-.03,.31,.23,.57,.54,.57h12.99Z"/><path class="cls-1" d="M116.15,46.42h-.71c-.3,0-.53-.24-.53-.53v-1.11c0-.3,.24-.53,.53-.53h6.78c.3,0,.53,.24,.53,.53v1.11c0,.3-.24,.53-.53,.53h-1.73c-.39,0-.65,.41-.48,.77l5.72,11.96c.3,.65,.55,1.26,.8,1.87,.19,.46,.84,.44,1-.03,.21-.61,.42-1.22,.66-1.89l4.6-11.95c.13-.35-.12-.73-.5-.73h-1.75c-.3,0-.53-.24-.53-.53v-1.11c0-.3,.24-.53,.53-.53h6.45c.3,0,.53,.24,.53,.53v1.11c0,.3-.24,.53-.53,.53h-.64c-.22,0-.41,.13-.5,.33l-7.43,18.38c-3.06,7.48-5.02,9.29-7.94,9.29-2.04,0-3.25-1.53-3.25-2.93,0-1.11,.93-2.04,2-2.04s1.67,.7,1.81,1.49c0,.23-.09,.51-.28,.7,.14,.09,.33,.14,.46,.14,1.53-.19,2.6-2.23,3.99-5.53l.37-.89c.06-.14,.05-.3-.01-.44l-8.94-18.2c-.09-.18-.28-.3-.48-.3Z"/><path class="cls-1" d="M143.52,44.23h4.59c.3,0,.54,.23,.54,.53-.01,3.33-.14,8.09-.14,11.22,0,4.55,1.81,7.01,6.04,7.01,2.11,0,4.11-.99,5.53-2.21,.76-.66,1.16-1.64,1.16-2.64v-11.19c0-.3-.24-.53-.53-.53h-1.67c-.3,0-.53-.24-.53-.53v-1.11c0-.3,.24-.53,.53-.53h4.55c.3,0,.53,.24,.53,.53v17.6c0,.3,.24,.53,.53,.53h1.72c.3,0,.53,.24,.53,.53v1.16c0,.3-.24,.53-.53,.53h-4.6c-.3,0-.53-.24-.53-.53v-1.2c0-.51-.6-.8-.99-.45-1.63,1.45-4.05,2.65-6.77,2.65-4.92,0-7.85-2.88-7.85-9.1,0-2.71,.04-6.61,.08-9.54,0-.3-.24-.54-.53-.54h-1.66c-.3,0-.53-.24-.53-.53v-1.11c0-.3,.24-.53,.53-.53Z"/></svg>